<svg xmlns="http://www.w3.org/2000/svg" version="1.1" xmlns:xlink="http://www.w3.org/1999/xlink" xmlns:svgjs="http://svgjs.com/svgjs" width="1000" height="1000"><rect width="1000" height="1000" rx="200" ry="200" fill="#ffffff"></rect><g transform="matrix(2.5,0,0,2.5,220.02586364751005,99.99775702506304)"><svg xmlns="http://www.w3.org/2000/svg" version="1.1" xmlns:xlink="http://www.w3.org/1999/xlink" xmlns:svgjs="http://svgjs.com/svgjs" width="224" height="320"><svg width="224" height="320" viewBox="0 0 224 320" fill="none" xmlns="http://www.w3.org/2000/svg">
<path d="M28.74 320.003C19.07 320.003 9.72003 320.003 0.0100297 320.003C0.0100297 318.713 0.0100297 317.583 0.0100297 316.453C0.0100297 255.223 0.0200352 193.993 3.51775e-05 132.763C-0.00996482 113.083 2.11003 93.7626 8.98003 75.1526C20.22 44.7026 40.56 23.0226 70.72 10.7126C87.47 3.88261 104.98 0.422609 122.96 0.222609C156.2 -0.147391 189.45 0.0626065 222.69 0.0326065C222.99 0.0326065 223.29 0.12261 223.75 0.19261C223.75 18.2726 223.75 36.3226 223.75 54.8426C222.7 54.8426 221.6 54.8426 220.5 54.8426C188.2 54.8826 155.9 54.7926 123.61 55.0526C113 55.1426 102.49 56.4926 92.26 59.8426C73.94 65.8526 63.14 78.4126 58.41 96.8526C55.4 108.603 54.8 120.543 54.78 132.523C54.68 193.643 54.73 254.773 54.73 315.893C54.73 317.143 54.73 318.393 54.73 319.983C46.03 320.003 37.54 320.003 28.74 320.003Z" fill="#1B1B1B"></path>
<path d="M223.92 87.1926C224.14 103.713 223.67 119.853 220.1 135.773C216.02 154.013 208.86 170.813 197.16 185.503C186.78 198.543 173.86 208.323 158.78 215.393C137.65 225.303 115.24 228.573 92.17 228.563C89.23 228.563 86.28 228.553 83.34 228.543C83.14 228.543 82.94 228.463 82.52 228.373C82.52 210.293 82.52 192.163 82.52 173.533C89.03 173.533 95.63 173.733 102.2 173.483C113.22 173.073 124.12 171.663 134.53 167.753C151.28 161.453 160.99 149.023 165.39 132.043C168.07 121.713 168.97 111.173 168.98 100.533C168.99 94.5626 168.98 88.5826 168.98 82.4026C187.38 82.4026 205.5 82.4026 223.91 82.4026C223.92 83.9826 223.92 85.4326 223.92 87.1926Z" fill="#0038A8"></path>
</svg></svg></g></svg>