<svg width="160" height="36" viewBox="0 0 160 36" fill="none" xmlns="http://www.w3.org/2000/svg">
    <path d="M52.691 20.44h-8.005v-4.753h7.517c-.047-.92-.15-1.787-.91-2.41-.524-.436-1.162-.578-1.815-.59a103 103 0 0 0-4.46.004 3.8 3.8 0 0 0-1.349.304c-.87.367-1.22 1.126-1.326 2.018a7 7 0 0 0-.047.845c-.003 1.412-.024 2.828.011 4.24.014.492.11 1.006.293 1.462.331.842 1.051 1.223 1.914 1.348.279.04.564.06.846.06q4.447.005 8.893.004h.31v4.764h-9.036c-1.537 0-2.977-.346-4.3-1.148-1.223-.745-2.147-1.761-2.81-3.024-.603-1.145-.87-2.378-.878-3.658-.01-1.57-.017-3.139.04-4.704.067-1.804.749-3.388 1.957-4.725 1.47-1.63 3.331-2.46 5.506-2.528 1.594-.05 3.195-.057 4.786.032 2.011.114 3.72.955 5.092 2.446 1.22 1.323 1.915 2.896 1.986 4.682.072 1.765.015 3.538.015 5.342-1.384-.01-2.792-.01-4.23-.01m64.656-11.112c2.728 1.508 4.197 3.88 4.807 6.846.235 1.138.306 2.293.303 3.452-.004 2.59 0 5.182 0 7.77v.315h-4.764v-.296c0-2.671.007-5.346-.004-8.017-.003-1.013-.05-2.022-.285-3.013-.428-1.78-1.505-2.924-3.274-3.374a9.2 9.2 0 0 0-1.965-.296c-1.447-.042-2.895-.014-4.364-.014-.004.025-.011.068-.008.11.004 1.47-.01 2.94.022 4.405.025 1.07.182 2.122.642 3.11.588 1.258 1.604 1.971 2.91 2.314.959.253 1.936.335 2.927.328.328-.004.656 0 1.002 0v4.757c-.456 0-.927.01-1.394-.004-1.355-.039-2.689-.21-3.98-.642-3.469-1.162-5.591-3.559-6.483-7.078-.303-1.198-.41-2.425-.41-3.659-.003-2.735 0-5.474 0-8.209v-.203c.097-.004.175-.014.253-.014h7.853c1.961 0 3.865.3 5.659 1.137.178.086.357.178.553.275M76.006 22.826h2.785v4.828c-.075.004-.153.011-.232.011-1.13-.014-2.264.014-3.391-.053-1.651-.1-3.22-.55-4.622-1.49-.53-.357-1.005-.8-1.526-1.224-.2.185-.431.41-.674.624-1.39 1.205-3.027 1.847-4.81 2.018-1.391.132-2.796.125-4.215.182v-4.889h.267c1.148-.018 2.3-.01 3.445-.06.699-.032 1.39-.186 2.015-.546.748-.431 1.205-1.105 1.397-1.95.375-1.659.386-3.324-.017-4.979-.31-1.28-1.148-2.04-2.375-2.29-.742-.149-1.512-.195-2.272-.231-.813-.04-1.633-.007-2.464-.007V7.942c.118 0 .232-.004.346 0 1.248.032 2.5-.008 3.74.11 2.105.196 3.98.988 5.503 2.56q.047.05.1.093c.014.01.032.014 0 0 .57-.446 1.095-.913 1.672-1.29 1.345-.882 2.846-1.32 4.426-1.413 1.198-.071 2.403-.043 3.609-.057.025 0 .05.01.085.018v4.81h-.282c-1.123.018-2.243.022-3.362.061a4.7 4.7 0 0 0-1.926.467 2.7 2.7 0 0 0-1.462 1.73c-.506 1.768-.506 3.566-.064 5.349.306 1.24 1.141 1.972 2.336 2.221.634.122 1.29.15 1.968.225m10.716-7.699c-.56 1.08-.738 2.236-.742 3.41-.021 5.59-.014 11.182-.014 16.774v.338h-4.75q-.008-.103-.01-.192c.003-5.602-.011-11.201.013-16.803.008-1.869.393-3.677 1.252-5.356q1.567-3.068 4.75-4.4a12.6 12.6 0 0 1 4.793-.964c2.817-.025 5.638-.01 8.455-.01.035 0 .071.003.128.007v4.746h-.292c-2.81.004-5.62-.007-8.43.022-1.088.01-2.165.156-3.174.606-.86.37-1.533.959-1.98 1.822M2.493 35.66H0V19.424c0-1.708.182-3.38.777-4.996.974-2.642 2.74-4.522 5.353-5.588a12.3 12.3 0 0 1 4.529-.91c2.881-.031 5.766-.013 8.647-.017q.036.002.093.014v4.74h-.282c-2.799.003-5.602-.004-8.401.017-.92.007-1.833.125-2.717.414-1.587.52-2.525 1.608-2.935 3.21-.26 1.02-.314 2.053-.314 3.091-.007 5.3-.004 10.602-.004 15.901v.353c-.756.007-1.49.007-2.253.007M145.322 3.152v24.56h-4.732V0h4.732zm14.671 4.989c.028 1.526-.068 3.014-.45 4.472-.513 1.972-1.458 3.684-3.006 5.039-.053.046-.107.1-.178.167 3.024 2.632 3.734 6.109 3.63 9.9h-4.764c0-.575.046-1.142-.011-1.698-.082-.813-.16-1.637-.371-2.421-.474-1.769-1.711-2.753-3.466-3.138-.988-.218-1.986-.257-2.992-.253h-.659v-4.765h.485c1.048.004 2.093-.025 3.127-.242 2.033-.428 3.238-1.665 3.662-3.687.218-1.024.246-2.061.232-3.103-.003-.153 0-.306 0-.478.064-.007.118-.017.168-.017q2.189.001 4.379-.004c.15 0 .249.014.214.228M35.182 10.434v2.236h-.346c-1.33.004-2.667-.057-3.983.175-1.401.25-2.639.791-3.398 2.09-.45.766-.681 1.611-.76 2.489-.064.745-.107 1.49-.11 2.239-.015 2.582-.004 5.164-.004 7.745v.31h-4.753V19.34c0-1.876.253-3.706.995-5.446 1.108-2.6 3.027-4.329 5.68-5.253a13.2 13.2 0 0 1 3.994-.71c.885-.02 1.769-.003 2.685-.003zm94.571 6.776c-.05.73-.132 1.44-.136 2.15-.014 2.682-.007 5.363-.007 8.045v.314h-4.75c-.003-.082-.01-.16-.01-.243 0-2.728-.007-5.456.003-8.184.007-1.883.261-3.726 1.027-5.467q1.547-3.526 5.11-4.981c1.462-.596 2.989-.87 4.558-.917.873-.025 1.751-.003 2.642-.003v4.746h-.324c-1.323.004-2.646-.053-3.959.175-1.194.207-2.285.63-3.081 1.604-.652.789-.934 1.737-1.073 2.76" fill="#1B1B1B"/>
    <path d="M95.583 19.21c.321-1.373.286-2.753.29-4.147h4.706c.008.014.029.04.029.064.075 2.321-.068 4.61-1.038 6.768-.991 2.208-2.592 3.812-4.807 4.793-1.683.745-3.459 1.016-5.285 1.045-.37.003-.745 0-1.13 0v-4.764h.339c1.212.014 2.418-.015 3.601-.325 1.79-.474 2.868-1.622 3.295-3.434m-76.166-3.737c.018 1.434-.021 2.831-.332 4.211-.353 1.58-.973 3.039-1.99 4.312-.902 1.13-2.021 1.979-3.327 2.592-1.833.86-3.776 1.145-5.777 1.141q-.383 0-.766-.003c-.018 0-.036-.007-.072-.014v-4.754c.564 0 1.138.018 1.709-.004.955-.035 1.9-.157 2.802-.495 1.452-.546 2.293-1.623 2.675-3.096.232-.895.31-1.811.31-2.731v-1.573h4.764c.004.136.004.26.004.414" fill="#0038A8"/>
</svg>
