<svg xmlns="http://www.w3.org/2000/svg" style="display:none;">

    <symbol id="HomeDefault" viewBox="0 0 48 48">
        <path d="M23.951 4a1.5 1.5 0 0 0-.879.322L8.86 15.52A7.5 7.5 0 0 0 6 21.41V40.5C6 41.864 7.136 43 8.5 43h10c1.364 0 2.5-1.136 2.5-2.5v-10c0-.295.205-.5.5-.5h5c.295 0 .5.205.5.5v10c0 1.364 1.136 2.5 2.5 2.5h10c1.364 0 2.5-1.136 2.5-2.5V21.41a7.5 7.5 0 0 0-2.86-5.89L24.929 4.322A1.5 1.5 0 0 0 23.95 4M24 7.41l13.285 10.467A4.5 4.5 0 0 1 39 21.41V40h-9v-9.5c0-1.915-1.585-3.5-3.5-3.5h-5c-1.915 0-3.5 1.585-3.5 3.5V40H9V21.41c0-1.38.63-2.679 1.715-3.533z"/>
    </symbol>
    <symbol id="HomeActive" viewBox="0 0 48 48">
        <path d="M39.5,43h-9c-1.381,0-2.5-1.119-2.5-2.5v-9c0-1.105-0.895-2-2-2h-4c-1.105,0-2,0.895-2,2v9c0,1.381-1.119,2.5-2.5,2.5h-9	C7.119,43,6,41.881,6,40.5V21.413c0-2.299,1.054-4.471,2.859-5.893L23.071,4.321c0.545-0.428,1.313-0.428,1.857,0L39.142,15.52	C40.947,16.942,42,19.113,42,21.411V40.5C42,41.881,40.881,43,39.5,43z"/>
    </symbol>

    <symbol id="ClockDefault" viewBox="0 0 48 48">
        <path d="M 24 4 C 12.972066 4 4 12.972074 4 24 C 4 35.027926 12.972066 44 24 44 C 35.027934 44 44 35.027926 44 24 C 44 12.972074 35.027934 4 24 4 z M 24 7 C 33.406615 7 41 14.593391 41 24 C 41 33.406609 33.406615 41 24 41 C 14.593385 41 7 33.406609 7 24 C 7 14.593391 14.593385 7 24 7 z M 23.476562 11.978516 A 1.50015 1.50015 0 0 0 22 13.5 L 22 25.5 A 1.50015 1.50015 0 0 0 23.5 27 L 31.5 27 A 1.50015 1.50015 0 1 0 31.5 24 L 25 24 L 25 13.5 A 1.50015 1.50015 0 0 0 23.476562 11.978516 z"/>
    </symbol>
    <symbol id="ClockActive" viewBox="0 0 48 48">
        <path d="M24 4C13 4 4 13 4 24s9 20 20 20 20-9 20-20S35 4 24 4m7.5 23h-8c-.8 0-1.5-.7-1.5-1.5v-12c0-.8.7-1.5 1.5-1.5s1.5.7 1.5 1.5V24h6.5c.8 0 1.5.7 1.5 1.5s-.7 1.5-1.5 1.5"/>
    </symbol>

    <symbol id="CarDefault" viewBox="0 0 48 48">
        <path d="M15.653 10.067c.777-.074 10.219-.035 11.662-.012 1.983.031 3.584.849 4.702 2.509 1.439 2.135 2.856 4.285 4.276 6.433a.54.54 0 0 0 .362.229c.385.084.774.145 1.161.219q.557.107 1.112.223c.386.079.771.163 1.157.243q.624.13 1.247.256c.379.075.756.157 1.138.212 1.85.263 3.343 1.044 4.148 2.833.28.621.376 1.284.39 1.953.023 1.109.031 2.219.002 3.328-.058 2.225-1.265 4.22-3.477 5.156-.766.324-1.574.447-2.401.422-.254-.008-.362.082-.453.32q-.855 2.256-3.073 3.225a5 5 0 0 1-2.081.433c-1.607-.029-3.002-.606-4.1-1.82a5.4 5.4 0 0 1-1.165-1.975c-.044-.137-.139-.172-.266-.182-.515-.039-1.031-.016-1.546-.017-1.297-.005-10.183.034-11.338-.004-.18-.006-.227.094-.271.226a5.3 5.3 0 0 1-1.421 2.227 5.5 5.5 0 0 1-2.284 1.312c-.81.235-1.625.302-2.44.154-1.427-.258-2.59-.982-3.477-2.137a5.1 5.1 0 0 1-.855-1.626c-.035-.116-.116-.154-.224-.172-.476-.078-.952-.155-1.407-.331-1.558-.602-2.631-1.693-3.264-3.225-.292-.707-.367-1.462-.382-2.217-.016-.811.018-1.623.018-2.435 0-.804-.038-1.609-.019-2.413.039-1.6.745-2.786 2.239-3.444.319-.14.659-.211 1.009-.255.459-.058.911-.171 1.369-.243.238-.038.474-.083.712-.115.377-.051.748-.13 1.121-.199.111-.021.147-.109.191-.189 1.076-1.931 2.163-3.857 3.223-5.796.683-1.25 1.638-2.185 2.964-2.728.551-.226 1.127-.329 1.738-.376m-1.794 17.389c.517.229.981.541 1.405.913a5.4 5.4 0 0 1 1.511 2.167c.179.476.149.393.55.394 2.164.005 10.537-.002 12.56.003.221.001.322-.065.402-.285a5.5 5.5 0 0 1 1.177-1.919c.901-.962 2.008-1.559 3.305-1.717.909-.111 1.821-.035 2.699.332 1.57.656 2.656 1.756 3.24 3.354.042.115.084.236.251.232.42-.01.841.027 1.254-.102.964-.3 1.628-1.191 1.646-2.136.024-1.242.007-2.484.006-3.726a1.35 1.35 0 0 0-1.077-1.345 45 45 0 0 0-.616-.13l-1.622-.329-1.667-.335-1.141-.226c-.41-.082-.819-.173-1.231-.247-.465-.083-.92-.223-1.4-.223-8.163.002-16.325-.001-24.488.004-.971.001-1.941-.049-2.909.165-.724.16-2.685.485-2.937.49-.393.007-.547.171-.547.563q-.002 2.484 0 4.968c0 .271.009.536.076.808a2.34 2.34 0 0 0 1.816 1.747c.12.024.204-.003.252-.14a5.65 5.65 0 0 1 2.206-2.858c.558-.381 1.18-.621 1.828-.79.495-.129 1.004-.102 1.51-.101.673.002 1.3.188 1.943.466m18.668-8.485c-.064-.121-.097-.199-.143-.268-.984-1.48-1.963-2.964-2.957-4.437-.498-.739-1.204-1.092-2.103-1.091-3.82.007-7.64.004-11.46.005-.579 0-1.077.216-1.514.584-.387.326-.593.777-.831 1.207l-2.065 3.718c-.045.081-.089.164-.047.301M9.242 32.223a2.05 2.05 0 0 0 .133 1.186c.509 1.25 1.77 1.79 3.01 1.387 1.426-.464 2.041-2.027 1.416-3.354-.538-1.143-1.943-1.701-3.144-1.171-.825.364-1.313.998-1.415 1.952m24.35 1.8c.715.833 1.624 1.094 2.649.775 1.339-.418 1.948-1.804 1.548-3.045-.416-1.294-1.694-1.929-2.998-1.588-1.003.262-1.801 1.359-1.73 2.401.036.516.173 1.014.53 1.458"/>
    </symbol>
    <symbol id="CarActive" viewBox="0 0 48 48">
        <path d="M22.922 34.047c-1.812.009-3.6.019-5.388.025-.602.002-.591.004-.832.565-.666 1.551-1.82 2.585-3.404 3.134a5 5 0 0 1-2.581.191c-2.012-.384-3.441-1.551-4.225-3.446-.166-.402-.387-.515-.776-.57-1.029-.145-1.929-.598-2.71-1.28a5.6 5.6 0 0 1-1.524-2.159c-.263-.65-.367-1.334-.369-2.03-.006-1.742-.009-3.484.004-5.226a3.53 3.53 0 0 1 2.574-3.406c.4-.115.819-.163 1.234-.222a23 23 0 0 0 1.192-.201c.442-.087.892-.125 1.33-.237.176-.045.256-.143.335-.285 1.153-2.077 2.284-4.166 3.474-6.221.641-1.106 1.621-1.852 2.83-2.296.721-.264 1.466-.342 2.219-.347 2.031-.013 9.121.029 10.635.018.455-.003.913.006 1.352.08.84.141 1.621.463 2.323.968.732.526 1.257 1.225 1.746 1.965 1.306 1.98 2.623 3.953 3.93 5.932.093.14.22.205.36.235.386.082.778.136 1.165.212.386.077.769.171 1.155.251.364.076.73.142 1.094.215.402.081.804.167 1.206.247.38.076.758.162 1.14.218 1.57.229 2.951.787 3.84 2.195.408.646.656 1.346.689 2.126.054 1.289.051 2.578.021 3.865-.051 2.184-1.067 3.818-2.978 4.87-.878.483-1.843.664-2.845.626-.317-.012-.335.007-.451.312-.419 1.11-1.105 2.014-2.088 2.693a5.3 5.3 0 0 1-1.751.798 5.8 5.8 0 0 1-1.852.135c-.993-.074-1.875-.419-2.676-.982a5.48 5.48 0 0 1-2.039-2.699c-.077-.216-.204-.27-.401-.269q-.926.002-1.851.001l-5.109-.001m9.32-15.035c.09 0 .188.004.255-.08-.005-.095-.06-.165-.106-.234-.985-1.48-1.965-2.963-2.961-4.435-.487-.72-1.173-1.09-2.056-1.089-3.842.005-7.685.003-11.527.005-.109 0-.221-.006-.327.016-.788.166-1.37.609-1.759 1.313q-1.154 2.087-2.31 4.172c-.048.087-.1.174-.094.316M9.83 34.161c.732.753 1.624.947 2.592.626 1.288-.427 1.929-1.784 1.503-3.054-.578-1.723-2.721-2.246-4.041-.94-.895.886-.938 2.365-.054 3.367m24.385.415c.722.419 1.475.47 2.239.148 1.23-.519 1.721-1.849 1.337-3.028-.362-1.112-1.646-1.854-2.837-1.564-1.254.305-1.923 1.327-1.886 2.452.028.824.385 1.52 1.147 1.992"/>
    </symbol>

    <symbol id="BikeDefault" viewBox="0 0 48 48">
        <path d="M11.941 37.396a6.7 6.7 0 0 1-2.572 1.409 5.9 5.9 0 0 1-2.547.182c-2.503-.385-4.274-1.778-5.263-4.113-.402-.949-.508-1.956-.411-2.993.163-1.73.924-3.141 2.197-4.292a6.2 6.2 0 0 1 2.34-1.326c.791-.243 1.609-.377 2.438-.29.482.051.97.128 1.427.295.201.073.294-.027.408-.12.89-.725 3.198-2.614 3.458-2.838.208-.179.208-.213-.002-.398a14.7 14.7 0 0 0-3.286-2.18 14.6 14.6 0 0 0-2.386-.917 16 16 0 0 0-1.857-.413 22 22 0 0 0-2.383-.269c-.586-.031-1.128-.541-1.329-1.096-.255-.707.185-1.473.706-1.811a14 14 0 0 1 3.679-1.709c.709-.21 1.439-.328 2.176-.418a13.6 13.6 0 0 1 2.571-.05c.917.064 1.823.216 2.723.41 1.013.217 2.007.502 3.002.784.694.197 1.38.419 2.075.613.305.085.613.162.938.161 1.383-.006 2.765.001 4.148-.004.609-.002 1.218-.023 1.827-.03.128-.001.225-.029.29-.15.734-1.362 1.841-2.322 3.219-2.993.261-.127.26-.15.086-.367-.531-.664-1.065-1.327-1.591-1.996a.73.73 0 0 0-.64-.302c-1.273.014-2.547.007-3.82.006-.916-.001-1.636-.743-1.583-1.634.046-.775.605-1.462 1.604-1.475 1.312-.017 2.625-.014 3.937-.002 1.19.011 2.151.504 2.892 1.432.906 1.134 1.815 2.267 2.715 3.405.112.142.239.22.413.224q.856.021 1.699.144c.451.065 2.208.429 2.632.549 1.379.389 2.682.952 3.894 1.719a11.7 11.7 0 0 1 2.932 2.629c.433.545.829 1.113 1.142 1.736.43.855-.084 1.82-.838 2.102-.38.142-.759.107-1.148.041a8 8 0 0 0-1.111-.128 26 26 0 0 0-2.085.003c-.548.029-1.091.132-1.632.251-.653.144-1.294.324-1.91.579-.803.332-1.565.74-2.25 1.28-.234.185-.239.241-.011.429.971.798 1.978 1.557 2.905 2.403.442.403.839.427 1.347.268a4.3 4.3 0 0 1 1.891-.161c2.656.365 4.562 1.73 5.573 4.262.299.749.416 1.533.422 2.322a6 6 0 0 1-.234 1.632 6.5 6.5 0 0 1-1.352 2.553 6.47 6.47 0 0 1-2.887 1.955c-.557.188-1.134.323-1.733.313-.545-.009-1.093.03-1.628-.103-.874-.216-1.7-.541-2.438-1.073a6.77 6.77 0 0 1-2.23-2.719 5 5 0 0 1-.237-.658c-.113-.378-.142-.407-.55-.41q-.633-.002-1.266 0c-1.241 0-9.495.006-10.26-.012-2.034-.049-3.641-1.244-4.314-3.069-.168-.456-.222-.947-.309-1.427a13 13 0 0 0-.387-1.525 10.2 10.2 0 0 0-.984-2.238c-.288-.478-.288-.48-.712-.133l-2.663 2.181c-.054.045-.103.096-.158.139-.14.109-.145.21-.026.351.583.695 1.034 1.472 1.272 2.345.214.785.325 1.581.238 2.417-.179 1.73-.921 3.143-2.2 4.317m20.879-22.239c-.401-.03-.8.027-1.186.109-.909.192-1.642.691-2.249 1.39-.43.495-.682 1.09-.991 1.656a131 131 0 0 1-2.246 3.965c-1.083 1.827-2.7 2.778-4.834 2.818-.57.011-1.141-.001-1.711.003-.215.001-.264.065-.174.257.313.668.579 1.353.788 2.059.112.378.232.754.319 1.138.108.474.161.959.294 1.428.143.505.678.902 1.199.925.711.032 4.022.014 4.968.021.177.001.333-.591.381-.761.13-.461.212-.933.343-1.394q.364-1.276.911-2.482a19.3 19.3 0 0 1 2.098-3.583c.372-.5.712-1.035 1.214-1.419a14 14 0 0 1 2.061-1.284c.93-.487 1.902-.877 2.901-1.194.382-.121 2.741-.65 3.029-.667.351-.02.689-.141 1.044-.113.04.003.007-.233-.069-.295-1.409-1.148-3.042-1.821-4.798-2.207a12 12 0 0 0-2.269-.298c-.327-.008-.654-.044-1.024-.071M4.51 31.113a6 6 0 0 0-.212.735c-.158.664-.072 1.301.164 1.919.609 1.588 2.371 2.526 4.141 2.002 1.568-.465 2.274-1.693 2.434-2.889a3.2 3.2 0 0 0-.51-2.203c-.487-.754-1.155-1.272-2.048-1.475-.642-.146-1.286-.156-1.907.049-.939.31-1.629.926-2.062 1.863m38.776-.546c-.856-1.211-2.177-1.694-3.674-1.363-.824.183-1.466.646-1.931 1.333-.527.779-.761 1.63-.56 2.585.082.385.19.752.387 1.085.555.939 1.362 1.487 2.458 1.664a3.3 3.3 0 0 0 1.885-.251c1.937-.844 2.624-3.264 1.434-5.054M23.729 20.24q.223-.385.443-.772c.044-.079.129-.158.08-.256-.057-.115-.179-.073-.275-.074-1.249-.003-2.499-.018-3.748.005a5.8 5.8 0 0 1-1.678-.206q-1.32-.366-2.631-.756c-1.113-.332-2.229-.642-3.377-.844a9.8 9.8 0 0 0-2.163-.159c-.265.012-.536-.008-.857.068.117.059.176.097.241.12.803.277 1.573.633 2.328 1.017a22 22 0 0 1 4.96 3.445c.096.088.187.149.327.148q2.026-.008 4.053-.002c.496.002.923-.173 1.324-.451.456-.316.695-.793.974-1.283m10.901 9.356c.222-.458.497-.883.834-1.265.119-.135.112-.244-.022-.356-.048-.04-.091-.086-.139-.125l-2.495-2.05c-.237-.195-.259-.191-.426.059a12 12 0 0 0-1.198 2.318q-.286.734-.492 1.496c-.085.313-.132.634-.223.944-.067.229-.026.309.215.309 1.085.003 2.17-.002 3.255-.001.14 0 .195-.058.239-.194.121-.377.242-.756.453-1.136"/>
    </symbol>
    <symbol id="BikeActive" viewBox="0 0 48 48">
        <path d="M42.632 38.652c-.34.115-.665.204-1 .274-.442.092-.883.089-1.326.084-1.717-.019-3.148-.697-4.344-1.904-.726-.733-1.229-1.604-1.576-2.571-.174-.485-.179-.484-.699-.484-3.836-.003-7.672.016-11.507-.019-1.889-.017-3.31-.889-4.179-2.594-.23-.452-.331-.946-.438-1.44a18 18 0 0 0-.392-1.477 18.5 18.5 0 0 0-1.09-2.749c-.215-.434-.226-.441-.605-.13q-1.377 1.128-2.747 2.263c-.259.214-.256.23-.048.485.64.786 1.102 1.665 1.32 2.654.145.66.201 1.328.136 2.016a6.4 6.4 0 0 1-.923 2.806c-.81 1.322-1.943 2.246-3.404 2.789a6.3 6.3 0 0 1-2.964.334c-1.51-.182-2.821-.84-3.883-1.952-.778-.815-1.333-1.753-1.624-2.848a6.6 6.6 0 0 1-.186-2.309c.153-1.713.907-3.115 2.163-4.259a6.3 6.3 0 0 1 2.736-1.456c.658-.168 1.333-.262 2.011-.192.483.05.975.109 1.429.286.228.089.352-.004.497-.123.774-.632 1.552-1.259 2.319-1.901a.98.98 0 0 1 .679-.242c2.047.009 4.094.037 6.14-.005 1.767-.036 3.23-.77 4.247-2.232 1.207-1.736 2.358-3.51 3.524-5.275.862-1.304 2.029-2.227 3.465-2.821.241-.1.269-.17.107-.375q-.768-.974-1.546-1.941c-.137-.171-.337-.182-.534-.183-1.242-.003-2.484-.007-3.726-.004-.684.002-1.21-.26-1.525-.885-.419-.829.067-1.886.963-2.135.223-.062.442-.083.668-.082l3.656.001c1.263.001 2.263.528 3.038 1.515.892 1.136 1.793 2.264 2.689 3.397a.36.36 0 0 0 .3.145c.733.018 1.453.137 2.175.261a15.2 15.2 0 0 1 3.6 1.106 15 15 0 0 1 3.502 2.187c.674.561 1.304 1.166 1.851 1.853.259.324.442.688.41 1.113-.06.791-.691 1.466-1.503 1.475-.417.004-.819-.092-1.229-.131a14 14 0 0 0-2.777.003q-.735.07-1.447.232c-.886.204-1.753.477-2.579.87-.558.266-1.101.554-1.614.898-.28.188-.291.232-.04.441.648.54 1.304 1.07 1.956 1.605.423.346.863.674 1.262 1.046.239.223.453.248.749.151.716-.234 1.461-.34 2.207-.248 2.419.296 4.237 1.498 5.359 3.684.254.494.412 1.028.523 1.581a6.3 6.3 0 0 1 .062 2.25 6.43 6.43 0 0 1-1.509 3.255 6.7 6.7 0 0 1-2.669 1.878c-.029.011-.06.014-.108.027m-31.631-6.745c-.057-.232-.099-.467-.195-.689-.457-1.052-1.216-1.758-2.345-2.021-.733-.17-1.468-.157-2.165.159-1.084.491-1.767 1.302-2 2.496a3.5 3.5 0 0 0 .185 1.961c.465 1.22 1.871 2.327 3.65 2.05.756-.118 1.397-.418 1.926-.952a3.3 3.3 0 0 0 .919-1.741c.08-.415.079-.815.025-1.263m30.478-2.684c-.062-.008-.124-.013-.185-.026-.831-.177-1.64-.138-2.4.272-.994.537-1.569 1.361-1.782 2.484-.115.606-.034 1.164.155 1.712.573 1.659 2.362 2.63 4.161 2.105 1.36-.396 2.25-1.497 2.419-2.809.149-1.16-.209-2.187-1.089-3.001-.362-.335-.789-.551-1.278-.738m-10.306-1.257c-.046.107-.095.213-.138.322-.308.779-.584 1.567-.715 2.401-.036.229.065.25.239.249 1.14-.004 2.28-.011 3.42-.001.207.002.298-.085.348-.259a6.5 6.5 0 0 1 1.222-2.319c.115-.141.094-.228-.047-.342-.726-.591-1.443-1.194-2.164-1.791-.269-.223-.541-.441-.814-.664-.054.047-.098.071-.122.108a15.5 15.5 0 0 0-1.229 2.297"/>
        <path d="M22.871 16.061c.155-.003.288-.004.421-.011.078-.004.206.202.164.267-.287.446-1.794 2.763-2.24 3.487a2.73 2.73 0 0 1-1.75 1.269 1.3 1.3 0 0 1-.302.027c-2.749.002-5.499 0-8.248.008-.247.001-.433-.124-.629-.224a16.4 16.4 0 0 0-2.729-1.068c-.748-.223-1.51-.4-2.289-.505-.586-.079-1.175-.122-1.761-.189-.938-.107-1.507-.898-1.398-1.753.058-.453.308-.823.699-1.085 1.447-.969 3.005-1.691 4.718-2.03a11.8 11.8 0 0 1 3.746-.143c.791.098 1.575.22 2.345.414.769.194 1.524.442 2.284.667.918.272 1.821.591 2.755.808q.126.029.255.03c1.312.011 2.624.02 3.958.029"/>
    </symbol>

    <symbol id="RupeeDefault" viewBox="0 0 48 48">
        <path d="M22.734 44.013c-2.656.001-5.289.011-7.922.002-2.248-.008-4.286-.669-6.053-2.07-1.659-1.316-2.761-3.009-3.316-5.062-.281-1.039-.294-2.095-.295-3.157-.001-.947.091-1.887.241-2.818.143-.891.343-1.771.591-2.643.63-2.214 1.594-4.275 2.79-6.233a33 33 0 0 1 3.002-4.117 38 38 0 0 1 3.966-4.011q.408-.352.827-.691c.1-.082.142-.151.087-.295-.365-.959-.713-1.924-1.072-2.885-.474-1.269-.955-2.535-1.429-3.804-.311-.832.058-1.696.878-2.023a2 2 0 0 1 .729-.139c1.344.003 2.687-.001 4.031.005a.56.56 0 0 0 .45-.193c.668-.71 1.446-1.27 2.382-1.557.692-.212 1.396-.288 2.136-.162 1.276.218 2.288.855 3.149 1.78.111.119.237.129.381.129 1.352-.002 2.703-.01 4.055 0 .85.006 1.423.405 1.681 1.217.103.323.036.636-.077.939-.565 1.51-1.136 3.018-1.701 4.528-.272.727-.531 1.459-.807 2.184-.048.126-.006.184.079.255 1.986 1.641 3.808 3.447 5.423 5.456 1.688 2.1 3.117 4.36 4.184 6.841.36.837.683 1.689.94 2.562.206.699.37 1.411.514 2.129.302 1.501.393 3.012.364 4.537-.042 2.205-.785 4.142-2.183 5.842a9.4 9.4 0 0 1-3.436 2.612c-.992.449-2.035.734-3.13.793-2.069.111-4.139.029-6.209.043-1.742.012-3.484.003-5.25.003m-2.18-3.107q6.422 0 12.843-.003c1.051-.001 2.055-.216 2.984-.717 2.241-1.206 3.369-3.116 3.483-5.63.049-1.075-.076-2.144-.254-3.207a18 18 0 0 0-.315-1.55 20 20 0 0 0-.81-2.446c-.716-1.805-1.665-3.48-2.771-5.07a33 33 0 0 0-2.823-3.496 36 36 0 0 0-3.705-3.474.67.67 0 0 0-.445-.171q-4.687.007-9.375.002a.6.6 0 0 0-.369.117c-.427.317-.824.668-1.222 1.019-.873.77-1.697 1.59-2.496 2.438a32 32 0 0 0-2.675 3.254 26 26 0 0 0-2.476 4.174 21 21 0 0 0-1.076 2.774 24 24 0 0 0-.402 1.528q-.157.66-.241 1.329c-.05.401-.086.806-.126 1.208-.11 1.103-.091 2.19.205 3.267a6.2 6.2 0 0 0 1.422 2.569c.957 1.049 2.149 1.688 3.526 1.975.462.096.943.109 1.421.108 1.883-.004 3.765-.001 5.695 0m9.614-33.445c.003-.068.052-.133.01-.215-.105-.044-.223-.03-.338-.03l-2.179-.001c-.665 0-1.192-.251-1.55-.831-.371-.599-.894-1.009-1.595-1.125-1.055-.175-1.908.167-2.492 1.088-.387.61-.933.886-1.651.871-.765-.017-1.53-.012-2.295-.016-.07 0-.142-.004-.187.075q.02.144.077.287.261.672.513 1.348c.363.965.732 1.927 1.08 2.897.074.207.186.244.378.243 1.991-.004 3.982 0 5.974 0q1.147 0 2.296-.005c.115 0 .225.01.281-.144.306-.835.621-1.666.936-2.497.241-.637.487-1.273.741-1.944"/>
        <path d="M17.855 20.625A1.63 1.63 0 0 1 19.189 20c3.257.006 6.514.011 9.771-.002.698-.003 1.405.547 1.6 1.189.234.77-.44 1.788-1.222 1.89-.422.055-.841.028-1.262.045-.091.004-.187-.018-.287.044.053.29.274.511.329.789.092.462.373.547.804.526.7-.034 1.225.287 1.541.93.452.918-.235 1.992-1.114 2.135a4.3 4.3 0 0 1-.789.065c-.152-.003-.238.069-.271.205-.14.567-.409 1.076-.732 1.553a6 6 0 0 1-2.456 2.108 6 6 0 0 1-2.042.549c-.046.004-.095-.001-.128.05-.022.09.047.138.101.192 1.01 1.01 2.01 2.032 3.036 3.026.694.672.692 1.664.147 2.246-.605.646-1.51.743-2.183.102-.871-.828-1.706-1.693-2.557-2.543-1.121-1.12-2.235-2.247-3.369-3.354-.342-.334-.576-.719-.592-1.177-.019-.537.214-1 .669-1.317.279-.194.59-.297.94-.295 1.211.007 2.423.038 3.632-.01.859-.034 1.58-.427 2.112-1.125.033-.043.065-.09.038-.16-.094-.082-.216-.049-.328-.049-1.781 0-3.562.01-5.342 0-.702-.004-1.272-.272-1.598-.94-.436-.891.159-1.884.96-2.12.198-.058.394-.084.599-.083q2.683.003 5.366.001c.114 0 .233.019.34-.037.037-.129-.05-.199-.112-.273-.619-.742-1.428-1.047-2.378-1.04q-1.605.013-3.21.004c-.523-.003-.96-.185-1.318-.594-.416-.476-.433-1.426-.026-1.904"/>
    </symbol>
    <symbol id="RupeeActive" viewBox="0 0 48 48">
        <path d="M15.979 4.271c.034-.021.652-.08.75-.08q1.717.002 3.434-.003c.076 0 .171-.021.222-.07.102-.097.178-.221.265-.333.353-.454.807-.791 1.299-1.071.244-.139.53-.206.795-.309a2.6 2.6 0 0 1 1.02-.178c.3.008.601.005.901.008.051.001.526.119.707.183.211.075.415.168.622.252.11.045.881.534.969.595.023.023.503.541.597.648.113.233.297.266.529.264 1.17-.01 2.34-.003 3.51-.003.272 0 .509.102.725.254.304.215.485.504.591.869.093.32.022.607-.067.891-.118.374-2.059 5.457-2.226 5.901-3.556 0-12.324.001-13.164-.007-.012-.008-.079-.134-.112-.191-.009-.041-2.21-6.003-2.245-6.084-.011-.003.05-.504.072-.598.01-.046.16-.35.177-.381.046-.064.568-.534.63-.56M6.316 27.762c.007-.034 1.531-3.436 1.699-3.747.134-.248 1.263-2.084 1.441-2.329.481-.662.951-1.333 1.46-1.973a31 31 0 0 1 1.542-1.783c.645-.692 1.318-1.359 1.988-2.028.252-.252.527-.482.798-.713a.36.36 0 0 1 .215-.078c2.197-.004 13.449.001 16.879-.01.296-.001.515.072.723.28.728.725 1.484 1.423 2.198 2.16.509.526.969 1.1 1.452 1.653.009.01.028.012.052.021.109.138.925 1.201 1.228 1.601a88 88 0 0 1 1.417 2.07c.053.087 1.069 1.914 1.211 2.2.148.3.911 2.074.986 2.28.08.22.777 2.632.855 2.954.045.184.198 1.232.235 1.57.038.343.159 2.324.147 2.969-.008.414-.092.828-.149 1.241-.032.229-.559 1.971-.667 2.224-.098.229-.715 1.327-.932 1.641a7.8 7.8 0 0 1-1.541 1.676c-.446.356-.912.69-1.395.994-.329.207-1.646.764-1.952.856-.308.093-.63.136-.942.213-1.054.26-2.127.179-3.195.18q-8.843.007-17.685-.004a9 9 0 0 1-1.295-.106c-.338-.049-1.491-.375-1.732-.459a13 13 0 0 1-1.188-.546 21 21 0 0 1-1.246-.795 7.8 7.8 0 0 1-1.617-1.559c-.33-.419-.614-.877-.889-1.336-.205-.343-.751-1.724-.84-2.053-.096-.35-.301-1.47-.307-1.677-.02-.723-.044-1.447-.043-2.171 0-.345.31-2.495.36-2.752m19.324 8.555c.16-.006.745-.122.859-.184.5-.269.753-.703.793-1.256a1.4 1.4 0 0 0-.084-.525c-.057-.175-.124-.369-.246-.497-.61-.638-2.937-2.941-3.471-3.468 2.869-.285 4.712-1.802 5.622-4.515.195 0 .408-.009.619.002.275.015.522-.05.761-.187.497-.287.749-.728.783-1.284a1.36 1.36 0 0 0-.232-.84c-.291-.442-.671-.722-1.218-.728-.247-.003-.494 0-.702 0l-.587-1.439c.405 0 .813-.008 1.221.003.265.007.501-.056.73-.186.499-.284.747-.725.79-1.281a1.3 1.3 0 0 0-.14-.665c-.273-.572-.703-.907-1.351-.907-3.347-.003-6.694 0-10.041-.004-.254 0-.478.062-.7.181-.513.275-.749.724-.797 1.275-.028.323.062.639.254.906.292.404.667.676 1.192.677.746.001 3.342.024 3.892.061.242.016.489.07.716.154.221.081.427.211.625.342.338.224.613.514.822.883h-.206c-1.927 0-3.855.003-5.782-.003a1.45 1.45 0 0 0-.716.18c-.524.282-.761.74-.8 1.305-.02.3.065.592.24.848.301.441.696.709 1.25.709q2.914-.002 5.829-.001h.187a2.6 2.6 0 0 1-.907.939c-.277.164-.575.319-.884.393-.351.085-.724.098-1.087.102q-1.562.016-3.124.001a1.44 1.44 0 0 0-.728.192c-.346.19-.587.485-.695.845-.071.235-.114.492-.047.77.083.346.239.62.48.862.253.254 5.541 5.561 5.984 5.973.245.228.541.38.896.366"/>
    </symbol>

    <symbol id="SideArrow" viewBox="0 0 48 48">
        <path d="M23.024 14.572 32.316 24l-9.294 9.428a1.52 1.52 0 0 0 0 2.14 1.49 1.49 0 0 0 2.12 0l10.35-10.496a1.57 1.57 0 0 0 0-2.144l-10.35-10.5a1.49 1.49 0 0 0-2.12 0 1.53 1.53 0 0 0 0 2.144"/>
        <path d="M24.994 25.072a1.57 1.57 0 0 0 0-2.144l-10.35-10.5a1.49 1.49 0 0 0-2.12 0 1.52 1.52 0 0 0 0 2.142L21.816 24l-9.292 9.428a1.52 1.52 0 0 0 0 2.14 1.49 1.49 0 0 0 2.12 0z"/>
    </symbol>

    <symbol id="UserDefault" viewBox="0 0 48 48">
        <path fill="#666666"
              d="M40.11 30.594c.36.695.531 1.399.513 2.148-.004.172.159 2.069-.074 2.794-.933 2.905-2.594 5.249-5.366 6.699-2.225 1.163-4.596 1.822-7.076 2.149-2.145.283-4.29.32-6.437.079-3.343-.375-6.534-1.221-9.295-3.249-1.958-1.438-3.31-3.305-3.73-5.742-.221-1.28-.279-2.588-.011-3.863.399-1.905 2.09-3.111 4.241-3.113 6.325-.003 21.972-.013 23.471 0 1.615.015 2.9.649 3.764 2.098m-3.238 1.073c-.233-.015-24.286-.059-24.455-.034-.41.062-.726.283-.754.711-.06.918-.107 1.845.053 2.755.283 1.607 1.249 2.768 2.55 3.668 2.797 1.936 5.995 2.543 9.305 2.722 1.575.085 3.15-.014 4.71-.273 2.362-.392 4.624-1.061 6.605-2.466 1.305-.926 2.263-2.104 2.537-3.731.135-.804.057-1.62.069-2.431.006-.417-.157-.724-.62-.922M34.183 11.68c1.766 5.934-2.137 11.962-8.273 12.832-5.275.747-10.328-2.916-11.226-8.139-.972-5.652 2.685-10.798 8.336-11.732 4.903-.81 9.62 2.153 11.162 7.04m-3.529-.477c-1.531-2.565-3.814-3.815-6.767-3.547-4.132.376-6.871 4.125-6.143 8.212.826 4.636 6.169 7.094 10.251 4.743 3.213-1.85 4.482-5.938 2.659-9.409"/>
    </symbol>
    <symbol id="UserActive" viewBox="0 0 48 48">
        <path fill="#0038A8"
              d="M25.807 44.473c-4.443.205-8.673-.427-12.535-2.677-2.295-1.337-3.974-3.218-4.618-5.873-.342-1.411-.36-2.849-.143-4.275.255-1.681 1.778-3.018 3.472-3.19.953-.097 17.008-.059 24.085-.057.819 0 1.622.099 2.352.51 1.251.703 1.925 1.794 2.092 3.2.505 4.243-1.264 7.696-4.989 9.789-2.361 1.327-4.905 2.06-7.579 2.389-.696.086-1.39.193-2.138.185m-9.871-24.698a10.08 10.08 0 0 1 3.3-13.902c4.627-2.847 10.858-1.394 13.762 3.261 2.963 4.75 1.496 10.956-3.289 13.921-4.644 2.876-10.871 1.404-13.772-3.28"/>
    </symbol>

    <symbol id="NumberPlateDefault" viewBox="0 0 48 48">
        <path fill="#666666"
              d="M47.968 28.651c0 1.326.003 2.601-.001 3.875-.011 3.46-2.686 6.148-6.143 6.149q-17.872.008-35.745.001c-3.406-.001-6.109-2.718-6.113-6.134q-.01-8.082 0-16.164c.004-3.423 2.699-6.118 6.119-6.119q17.873-.005 35.745.001c3.449.001 6.133 2.694 6.137 6.153.006 4.062.001 8.125.001 12.238m-41.746 6.63c5.014-.015 28.672-.037 35.436.014 1.718.013 2.942-1.227 2.925-2.91-.053-5.285-.017-10.571-.019-15.857 0-.322.007-.644-.083-.961-.352-1.239-1.338-1.902-2.845-1.902-11.795 0-23.59.018-35.385-.016-1.727-.005-2.952 1.215-2.892 2.878.062 1.748.017 12.321.011 15.856-.001.605.055 1.184.41 1.702.59.863 1.411 1.199 2.443 1.196"
              style="stroke-width:50px"/>
        <path fill="#666666"
              d="M20.726 20.654c1.719 1.085 2.442 2.639 2.123 4.579-.292 1.777-1.398 2.939-3.132 3.472-.778.24-1.581.217-2.376.156-.611-.047-1.037-.504-1.043-1.128q-.03-3.263-.003-6.526c.005-.622.429-1.089 1.036-1.134 1.161-.087 2.312-.043 3.396.581m-.076 3.608c-.168-.909-.654-1.539-1.558-1.829-.347-.111-.51-.057-.506.343q.015 1.704.001 3.408c-.003.372.153.423.479.328.964-.281 1.554-1.07 1.584-2.251m12.767-.907c-.898-.494-1.038-1.171-.439-1.942.87-1.12 2.487-1.621 3.898-1.208 1.359.398 2.285 1.537 2.372 3.044.061 1.059-.443 1.895-1.263 2.54-.319.251-.659.474-1.105.792.464 0 .81-.011 1.155.002.73.028 1.229.512 1.222 1.169-.007.631-.503 1.119-1.209 1.127-1.409.016-2.819.022-4.228-.003-.86-.015-1.344-.7-1.167-1.535.168-.793.685-1.317 1.321-1.735.652-.428 1.338-.805 2.003-1.213.202-.124 1.078-.877.936-1.288-.15-.433-.443-.685-.885-.734-.478-.054-.927.06-1.236.455-.349.446-.779.635-1.376.529m-23.149 4.417c-.3-.001-.369.198-.466.38-.348.65-.92.877-1.522.613-.582-.255-.835-.877-.561-1.548.873-2.139 1.769-4.268 2.658-6.401.204-.489.574-.765 1.103-.755.505.01.861.281 1.056.75.889 2.132 1.788 4.26 2.661 6.398.272.665.02 1.301-.545 1.553-.595.265-1.201.048-1.521-.609-.156-.319-.356-.395-.678-.387-.714.018-1.428.005-2.185.006m.744-2.429c.282.246.585.116.921.075a3.4 3.4 0 0 0-.499-1.141c-.081.184-.339.809-.422 1.066m19.518-3.985c.006.68.003 4.861.001 6.221-.001.822-.396 1.294-1.09 1.31-.71.017-1.18-.459-1.194-1.29-.023-1.376-.006-2.753-.005-4.13.001-.723.002-.723-.684-.594-.72.136-1.284-.199-1.448-.859-.143-.576.221-1.159.881-1.345.685-.193 1.377-.37 2.074-.514.89-.183 1.457.294 1.464 1.2"
              style="stroke-width:50px"/>
    </symbol>
    <symbol id="NumberPlateActive" viewBox="0 0 48 48">
        <path fill="#0038A8"
              d="M31.455 9.912c3.492 0 6.932 -0.007 10.372 0.002 2.996 0.008 5.367 1.903 6.019 4.815 0.099 0.444 0.134 0.911 0.135 1.368 0.009 5.331 0.012 10.662 0.004 15.993 -0.005 3.53 -2.636 6.178 -6.159 6.181q-17.832 0.013 -35.664 0C2.642 38.267 0.008 35.612 0.003 32.087 -0.003 26.773 -0.002 21.459 0.003 16.145c0.003 -3.593 2.625 -6.23 6.212 -6.232m8.68 15.354c0 0.902 -0.008 1.805 0.003 2.707 0.01 0.817 0.517 1.334 1.337 1.359 0.527 0.016 1.056 0.012 1.583 -0.012 2.183 -0.102 4.096 -1.584 4.738 -3.656 0.661 -2.133 -0.1 -4.435 -1.869 -5.784 -1.357 -1.035 -2.913 -1.134 -4.515 -1.042 -0.816 0.047 -1.271 0.577 -1.275 1.424 -0.006 1.634 -0.002 3.268 -0.002 5.005m26.444 0.073c0.352 -0.552 0.835 -1.062 1.031 -1.665 0.589 -1.809 -0.521 -3.874 -2.365 -4.583 -1.881 -0.724 -4.43 0.129 -5.206 1.771 -0.121 0.255 -0.154 0.599 -0.102 0.879 0.098 0.529 0.472 0.856 1.002 0.966 0.557 0.115 0.993 -0.102 1.342 -0.534 0.503 -0.622 1.265 -0.872 1.949 -0.645 0.945 0.313 1.182 1.347 0.434 1.986 -0.347 0.296 -0.744 0.535 -1.133 0.777 -0.735 0.457 -1.499 0.871 -2.217 1.354 -0.726 0.487 -1.265 1.135 -1.418 2.037 -0.155 0.918 0.407 1.639 1.336 1.649 1.72 0.02 3.44 0.017 5.16 0.002 0.834 -0.007 1.376 -0.56 1.362 -1.33 -0.013 -0.741 -0.562 -1.257 -1.369 -1.272 -0.535 -0.01 -1.07 -0.002 -1.667 -0.002 0.646 -0.479 1.228 -0.909 1.862 -1.39m-27.768 2.856c-0.038 -0.249 -0.028 -0.518 -0.122 -0.744 -1.068 -2.584 -2.153 -5.161 -3.228 -7.743 -0.234 -0.563 -0.641 -0.877 -1.249 -0.872 -0.607 0.005 -1.005 0.327 -1.238 0.889 -1.065 2.567 -2.146 5.128 -3.201 7.7 -0.11 0.268 -0.153 0.601 -0.109 0.886 0.089 0.57 0.574 0.964 1.126 1.012 0.623 0.054 1.128 -0.221 1.367 -0.836 0.141 -0.362 0.327 -0.476 0.709 -0.464 0.934 0.03 1.871 0.018 2.806 0.005 0.284 -0.004 0.456 0.051 0.575 0.351 0.275 0.699 0.713 0.99 1.342 0.949 0.664 -0.043 1.044 -0.428 1.223 -1.133m18.414 -0.275c0.007 -1.055 0.012 -6.228 -0.003 -7.708 -0.009 -0.883 -0.721 -1.492 -1.556 -1.311 -0.912 0.197 -1.816 0.433 -2.714 0.687 -0.729 0.206 -1.112 0.892 -0.936 1.579 0.18 0.7 0.879 1.106 1.631 0.942 0.307 -0.067 0.612 -0.147 0.966 -0.233v0.632c0 1.804 -0.006 3.607 0.003 5.411 0.004 0.895 0.556 1.493 1.332 1.479 0.754 -0.013 1.271 -0.603 1.277 -1.479"/>
        <path fill="#0038A8"
              d="M17.538 26.718v-5.216c1.345 -0.073 2.508 1.018 2.602 2.403 0.102 1.501 -0.935 2.654 -2.602 2.813"/>
        <path fill="#0038A8"
              d="M8.986 23.683c0.27 0.543 0.504 1.1 0.756 1.702H8.216c0.254 -0.584 0.493 -1.137 0.77 -1.702"/>
    </symbol>

    <symbol id="Entry" viewBox="0 0 48 48">
        <path d="M16.034 41.442c-1.796-1.294-2.618-3.049-2.637-5.2-.013-1.546-.015-3.093.002-4.64.019-1.696 1.551-2.706 3.004-1.989.866.427 1.133 1.204 1.139 2.099.011 1.5 0 3 .005 4.499.005 1.487.726 2.198 2.223 2.198h16.404c1.475 0 2.232-.749 2.233-2.208q.002-11.741 0-23.481c0-1.449-.74-2.188-2.196-2.188q-8.296-.002-16.591.001c-1.303 0-2.064.755-2.07 2.06-.007 1.578.012 3.156-.007 4.734-.02 1.689-1.489 2.689-2.953 2.025-.82-.372-1.184-1.073-1.184-1.921 0-1.873-.099-3.748.06-5.619.217-2.549 2.27-4.798 4.798-5.278a5.5 5.5 0 0 1 1.022-.101c5.734.003 11.467.024 17.201-.008 2.76-.016 5.344 2.029 5.913 4.805.089.433.106.864.106 1.301q0 12.07-.004 24.137c-.001 3.08-2.733 5.829-5.807 5.834-5.749.008-11.498-.003-17.248.008-1.247.003-2.362-.363-3.413-1.068"/>
        <path d="M23.884 29.143c.818-.829 1.614-1.632 2.463-2.488-.384-.152-.681-.109-.968-.109q-8.316-.003-16.632-.001c-1.105 0-1.87-.446-2.198-1.275-.592-1.493.43-2.871 2.144-2.874 3.311-.005 17.364.048 17.553-.074.024-.213-.15-.298-.263-.413-.647-.656-1.312-1.294-1.947-1.962-.579-.61-.795-1.336-.526-2.157.259-.789.838-1.223 1.634-1.371.66-.122 1.254.077 1.72.539a649 649 0 0 1 6.094 6.096 2.017 2.017 0 0 1-.006 2.841 628 628 0 0 1-6.063 6.06c-.805.794-2.003.806-2.805.09-.818-.73-.911-1.925-.202-2.902"/>
    </symbol>
    <symbol id="Exit" viewBox="0 0 48 48">
        <path d="M10.025 41.636c-1.659-.651-2.808-1.805-3.502-3.414a5.1 5.1 0 0 1-.433-2.045c.001-8.054-.004-16.108.004-24.163.002-1.589.608-2.949 1.703-4.087a5.9 5.9 0 0 1 3.263-1.754q.475-.085.953-.084c5.718 0 11.437-.039 17.155.019 2.515.026 4.362 1.274 5.479 3.55.214.435.367.9.401 1.38.031.441-.106.867-.366 1.232-.463.649-1.109.978-1.897.881-.893-.11-1.491-.643-1.758-1.506-.187-.605-.602-.987-1.14-1.26a1.95 1.95 0 0 0-.9-.209c-5.617.005-11.234.01-16.85-.001-.912-.002-1.727.631-1.886 1.438-.035.177-.066.35-.066.529q-.003 11.964.001 23.928c0 .758.549 1.57 1.379 1.767.193.046.38.071.575.071l16.78-.001c1.008 0 1.782-.559 2.11-1.52.318-.932 1.133-1.525 2.101-1.466.862.052 1.655.691 1.866 1.607.193.835-.15 1.54-.511 2.222-.852 1.611-2.192 2.627-3.961 3.074a5.6 5.6 0 0 1-1.364.179c-5.781-.002-11.562 0-17.343-.003-.614 0-1.202-.154-1.794-.366"/>
        <path d="M34.901 26.111c-3.242 0-14.985.006-17.602 0-.649-.002-1.253-.162-1.719-.657a2.033 2.033 0 0 1 .927-3.37c.256-.074.529-.111.807-.111q8.483.007 16.964.002c.199 0 .402.039.598-.027.012-.115-.071-.161-.128-.219-.703-.711-1.4-1.427-2.113-2.127-.526-.516-.788-1.128-.673-1.855.114-.724.525-1.259 1.203-1.56.857-.38 1.622-.185 2.269.45 1.265 1.242 5.104 5.11 5.791 5.77 1.036.996 1.064 2.213.052 3.229-.689.692-4.522 4.521-5.743 5.75-.435.437-.946.739-1.57.721-.848-.025-1.636-.527-1.932-1.439-.247-.762-.088-1.442.452-2.01.737-.775 1.505-1.521 2.259-2.28.059-.059.14-.103.159-.268"/>
    </symbol>

</svg>
